<svg version="1.1" xmlns="http://www.w3.org/2000/svg" xmlns:xlink="http://www.w3.org/1999/xlink" width="1316.94455" height="4217.81682" viewBox="0,0,1316.94455,4217.81682"><g transform="translate(494.71011,3276.89422)"><g data-paper-data="{&quot;isPaintingLayer&quot;:true}" fill-rule="nonzero" stroke-width="4.5" stroke-linecap="butt" stroke-linejoin="miter" stroke-miterlimit="10" stroke-dasharray="" stroke-dashoffset="0" style="mix-blend-mode: normal"><path d="M194.80545,938.6726v-20h60.51503v20z" fill="#ec8e00" stroke="#bc7100"/><path d="M191.43641,669.29165v-20h60.51503v20z" fill="#ec8e00" stroke="#bc7100"/><path d="M276.32926,803.50594v-20h60.51502v20z" fill="#ec8e00" stroke="#bc7100"/><path d="M32.63599,-3254.64422v-20h334v20z" fill="#ec8e00" stroke="#bc7100"/><path d="M207.636,-3155.64422v-20h334v20z" fill="#ec8e00" stroke="#bc7100"/><path d="M117.63599,-3054.64422v-20h334v20z" fill="#ec8e00" stroke="#bc7100"/><path d="M27.63599,-2941.64422v-20h174v20z" fill="#ec8e00" stroke="#bc7100"/><path d="M317.636,-2942.64422v-20h174v20z" fill="#ec8e00" stroke="#bc7100"/><path d="M202.98842,-2787.16646l-1.66277,-19.93076l299.95793,-25.02476l1.66277,19.93076z" fill="#ec8e00" stroke="#bc7100"/><path d="M32.15852,-2652.17875v-20h174v20z" fill="#ec8e00" stroke="#bc7100"/><path d="M376.1345,-2578.67124v-20h174v20z" fill="#ec8e00" stroke="#bc7100"/><path d="M65.81918,-2483.58115v-20h74.9009v20z" fill="#ec8e00" stroke="#bc7100"/><path d="M222.47084,-2481.58416v-20h74.9009v20z" fill="#ec8e00" stroke="#bc7100"/><path d="M380.62399,-2449.55713v-20h74.9009v20z" fill="#ec8e00" stroke="#bc7100"/><path d="M394.00496,-2317.53156l-8.47265,-18.11668l127.69266,-59.71824l8.47266,18.11668z" fill="#ec8e00" stroke="#bc7100"/><path d="M29.62399,-2168.55713v-20h430.9009v20z" fill="#ec8e00" stroke="#bc7100"/><path d="M111.62398,-2076.55713v-20h430.9009v20z" fill="#ec8e00" stroke="#bc7100"/><path d="M32.62399,-1990.55713v-20h430.9009v20z" fill="#ec8e00" stroke="#bc7100"/><path d="M121.62399,-1901.55713v-20h430.9009v20z" fill="#ec8e00" stroke="#bc7100"/><path d="M32.62399,-1804.55713v-20h430.9009v20z" fill="#ec8e00" stroke="#bc7100"/><path d="M430.62399,-1613.55713v-20h106.9009v20z" fill="#ec8e00" stroke="#bc7100"/><path d="M290.62399,-1565.55713v-20h106.9009v20z" fill="#ec8e00" stroke="#bc7100"/><path d="M113.62399,-1489.55713v-20h106.9009v20z" fill="#ec8e00" stroke="#bc7100"/><path d="M295.62399,-1413.55713v-20h106.9009v20z" fill="#ec8e00" stroke="#bc7100"/><path d="M173.62398,-1369.55713v-20h106.9009v20z" fill="#ec8e00" stroke="#bc7100"/><path d="M67.62398,-1260.55713v-20h106.9009v20z" fill="#ec8e00" stroke="#bc7100"/><path d="M256.62399,-1214.55713v-20h106.9009v20z" fill="#ec8e00" stroke="#bc7100"/><path d="M262.62399,-1058.55713v-20h258.9009v20z" fill="#ec8e00" stroke="#bc7100"/><path d="M28.88525,-957.46104v-20h258.9009v20z" fill="#ec8e00" stroke="#bc7100"/><path d="M284.636,-857.86645v-20h258.9009v20z" fill="#ec8e00" stroke="#bc7100"/><path d="M11.85821,-753.76734v-20h258.9009v20z" fill="#ec8e00" stroke="#bc7100"/><path d="M321.66303,-676.69527v-20h258.9009v20z" fill="#ec8e00" stroke="#bc7100"/><path d="M41.37774,-590.61419v-20h258.9009v20z" fill="#ec8e00" stroke="#bc7100"/><path d="M348.17954,-507.53611v-20h39.68169v20z" fill="#ec8e00" stroke="#bc7100"/><path d="M102.42879,-407.94152v-20h39.68169v20z" fill="#0021ff" stroke="#00ffff"/><path d="M491.81317,-77.11569v-20h39.68168v20z" fill="#0021ff" stroke="#00ffff"/><path d="M131.94831,-117.16073v-20h39.68169v20z" fill="#0021ff" stroke="#00ffff"/><path d="M335.14651,-130.17875v-20h39.68168v20z" fill="#0021ff" stroke="#00ffff"/><path d="M-8.20184,-177.73131v-20h39.68169v20z" fill="#0021ff" stroke="#00ffff"/><path d="M531.33269,-210.26884v-20h39.68169v20z" fill="#0021ff" stroke="#00ffff"/><path d="M227.02338,-232.29587v-20h39.68169v20z" fill="#0021ff" stroke="#00ffff"/><path d="M15.80717,-487.05563v-20h39.68169v20z" fill="#0021ff" stroke="#00ffff"/><path d="M4.29065,-388.96254v-20h39.68169v20z" fill="#0021ff" stroke="#00ffff"/><path d="M431.21257,-274.35293v-20h39.68169v20z" fill="#0021ff" stroke="#00ffff"/><path d="M478.25462,-425.50908v-20h39.68169v20z" fill="#0021ff" stroke="#00ffff"/><path d="M181.45281,-467.05563v-20h39.68169v20z" fill="#0021ff" stroke="#00ffff"/><path d="M87.35371,-277.37095v-20h39.68169v20z" fill="#0021ff" stroke="#00ffff"/><path d="M281.5429,-321.92049v-20h39.68169v20z" fill="#0021ff" stroke="#00ffff"/><path d="M-303.09321,70.6342v-20h645.56757v20z" fill="#0021ff" stroke="#00ffff"/><path d="M272.41688,158.06803v-20h547.56756v20z" fill="#0021ff" stroke="#00ffff"/><path d="M-492.46011,258.21164v-20h645.56757v20z" fill="#0021ff" stroke="#00ffff"/><path d="M273.21022,310.97022v-20h60.51502v20z" fill="#0021ff" stroke="#00ffff"/><path d="M277.25784,551.6607v-20h60.51503v20z" fill="#ec8e00" stroke="#bc7100"/><path d="M194.29355,415.27974v-20h60.51502v20z" fill="#0021ff" stroke="#00ffff"/><path d="M171.73124,292.78278l19.99963,-0.12138l3.91796,645.55568l-19.99963,0.12138z" fill="#0021ff" stroke="#00ffff"/><path d="M329.88439,291.77677l19.99964,-0.12138l3.91796,645.55568l-19.99964,0.12138z" fill="#0021ff" stroke="#00ffff"/></g></g></svg>